<svg width="26" height="24" viewBox="0 0 26 24" fill="none" xmlns="http://www.w3.org/2000/svg">
<g id="googleplus black.1">
<path id="GooglePlus" fill-rule="evenodd" clip-rule="evenodd" d="M12.8324 13.7625C11.9272 13.7625 9.70415 13.7652 9.70415 13.7652V11.6913H15.2612C15.6482 14.2007 14.4807 17.9649 9.70415 17.9649C6.50852 17.9649 3.91797 15.6203 3.91797 12.7282C3.91797 9.83609 6.50852 7.49158 9.70415 7.49158C11.2036 7.49158 12.5699 8.00778 13.5978 8.85456C12.8012 9.53536 12.5459 9.79488 12.3289 10.0154C12.216 10.1301 12.1135 10.2342 11.9507 10.3816C11.3561 9.93663 10.7079 9.61735 9.70415 9.61735C7.80577 9.61735 6.3241 11.0101 6.3241 12.7282C6.3241 14.4463 7.80577 15.8391 9.70415 15.8391C11.58 15.8391 12.3422 15.107 12.8324 13.7625ZM20.1307 9.98022V11.7949H22.1358V13.0911H20.1307V14.9576H18.6985V13.0911H16.6361V11.7949H18.6985V9.98022H20.1307Z" fill="white"/>
</g>
</svg>
