<svg width="25" height="24" viewBox="0 0 25 24" fill="none" xmlns="http://www.w3.org/2000/svg">
<g id="pinterest color.1">
<path id="Pinterest" d="M12.6086 3.68311C7.57827 3.68311 3.49915 7.51946 3.49915 12.2527C3.49915 15.7605 5.74224 18.7756 8.95262 20.1007C8.92691 19.5031 8.94833 18.7836 9.11009 18.1327C9.28576 17.4373 10.282 13.4639 10.282 13.4639C10.282 13.4639 9.99168 12.9168 9.99168 12.1076C9.99168 10.8378 10.7747 9.88959 11.7484 9.88959C12.5765 9.88959 12.9771 10.4751 12.9771 11.1764C12.9771 11.9594 12.4458 13.1314 12.1726 14.2167C11.9445 15.1267 12.6568 15.8673 13.6102 15.8673C15.3359 15.8673 16.4981 13.7824 16.4981 11.3115C16.4981 9.43411 15.1538 8.02835 12.7082 8.02835C9.94562 8.02835 8.2242 9.96618 8.2242 12.1307C8.2242 12.8785 8.45773 13.4045 8.82408 13.8116C8.99332 14 9.01582 14.0746 8.95476 14.2903C8.91191 14.4465 8.81122 14.8274 8.76944 14.9775C8.70839 15.1942 8.522 15.2728 8.31418 15.1922C7.04053 14.7034 6.44816 13.3924 6.44816 11.9181C6.44816 9.48449 8.63019 6.56415 12.9578 6.56415C16.436 6.56415 18.7252 8.93327 18.7252 11.4737C18.7252 14.8354 16.7392 17.3466 13.8094 17.3466C12.8271 17.3466 11.9016 16.8468 11.5846 16.2795C11.5846 16.2795 11.0554 18.2536 10.944 18.6345C10.7512 19.2945 10.373 19.9556 10.027 20.4695C10.8465 20.6973 11.712 20.8212 12.6086 20.8212C17.639 20.8212 21.717 16.9849 21.717 12.2527C21.717 7.51946 17.639 3.68311 12.6086 3.68311Z" fill="white"/>
</g>
</svg>
