<svg width="26" height="24" viewBox="0 0 26 24" fill="none" xmlns="http://www.w3.org/2000/svg">
<g id="round-place-24px">
<path id="Shape" fill-rule="evenodd" clip-rule="evenodd" d="M5.8269 9.37558C5.8269 5.69088 8.99479 2.71075 12.9116 2.71075C16.8285 2.71075 19.9964 5.69088 19.9964 9.37558C19.9964 13.3459 15.5229 18.8206 13.691 20.9057C13.2861 21.3627 12.5473 21.3627 12.1424 20.9057C10.3004 18.8206 5.8269 13.3459 5.8269 9.37558ZM10.3814 9.37558C10.3814 10.6895 11.5149 11.7559 12.9116 11.7559C14.3083 11.7559 15.4419 10.6895 15.4419 9.37558C15.4419 8.06166 14.3083 6.99529 12.9116 6.99529C11.5149 6.99529 10.3814 8.06166 10.3814 9.37558Z" fill="white"/>
</g>
</svg>
