<svg width="26" height="24" viewBox="0 0 26 24" fill="none" xmlns="http://www.w3.org/2000/svg">
<g id="round-phone-24px">
<g id="Rounded_1_">
<path id="Path" fill-rule="evenodd" clip-rule="evenodd" d="M20.2292 15.4205L17.6584 15.1444C17.041 15.0778 16.4338 15.2777 15.9986 15.6871L14.1363 17.439C11.272 16.068 8.92395 13.8686 7.46652 11.1646L9.33891 9.40314C9.77412 8.99373 9.98666 8.42246 9.91581 7.84167L9.6223 5.44233C9.50085 4.48069 8.64056 3.75708 7.60821 3.75708H5.85727C4.71359 3.75708 3.76222 4.65207 3.83306 5.72796C4.36948 13.8591 11.2822 20.3525 19.9154 20.8571C21.0591 20.9238 22.0105 20.0288 22.0105 18.9529V17.3057C22.0206 16.3441 21.2514 15.5348 20.2292 15.4205Z" fill="white"/>
</g>
</g>
</svg>
