<svg width="25" height="24" viewBox="0 0 25 24" fill="none" xmlns="http://www.w3.org/2000/svg">
<g id="rss black.1">
<path id="RSS" fill-rule="evenodd" clip-rule="evenodd" d="M21.298 20.8212H17.8281C17.8281 13.1709 11.2125 6.94731 3.08027 6.94731V3.68311C13.1254 3.68311 21.298 11.3714 21.298 20.8212ZM3.08027 18.3729C3.08027 17.0208 4.24555 15.9246 5.6828 15.9246C7.12004 15.9246 8.28532 17.0208 8.28532 18.3729C8.28532 19.725 7.12004 20.8212 5.6828 20.8212C4.24555 20.8212 3.08027 19.725 3.08027 18.3729ZM11.7556 20.8212H15.2254C15.2254 14.5211 9.77703 9.39561 3.08008 9.39561V12.6604C7.86352 12.6604 11.7556 16.3212 11.7556 20.8212Z" fill="white"/>
</g>
</svg>
