<svg width="26" height="24" viewBox="0 0 26 24" fill="none" xmlns="http://www.w3.org/2000/svg">
<g id="youtube color.1">
<path id="Youtube" fill-rule="evenodd" clip-rule="evenodd" d="M21.0675 7.46278C21.6135 7.99677 21.7917 9.20939 21.7917 9.20939C21.7917 9.20939 21.9739 10.6337 21.9739 12.0575V13.3928C21.9739 14.8171 21.7917 16.2409 21.7917 16.2409C21.7917 16.2409 21.6135 17.4536 21.0675 17.9876C20.4433 18.6193 19.7512 18.6845 19.36 18.7214C19.317 18.7255 19.2776 18.7292 19.2423 18.7333C16.693 18.9115 12.8649 18.917 12.8649 18.917C12.8649 18.917 8.12827 18.8752 6.67084 18.7399C6.60179 18.7274 6.51808 18.7177 6.42329 18.7067C5.96164 18.6532 5.23704 18.5693 4.66175 17.9876C4.11578 17.4536 3.93816 16.2409 3.93816 16.2409C3.93816 16.2409 3.75598 14.8171 3.75598 13.3928V12.0575C3.75598 10.6337 3.93816 9.20939 3.93816 9.20939C3.93816 9.20939 4.11578 7.99677 4.66175 7.46278C5.28734 6.83019 5.98012 6.76563 6.37137 6.72917C6.41379 6.72521 6.45266 6.72159 6.48752 6.71761C9.03689 6.53943 12.8609 6.53943 12.8609 6.53943H12.8689C12.8689 6.53943 16.693 6.53943 19.2423 6.71761C19.2772 6.7216 19.3161 6.72522 19.3585 6.72918C19.7495 6.76565 20.4425 6.83029 21.0675 7.46278ZM10.9834 10.0662L10.984 15.0107L15.9056 12.5469L10.9834 10.0662Z" fill="white"/>
</g>
</svg>
