<svg width="26" height="24" viewBox="0 0 26 24" fill="none" xmlns="http://www.w3.org/2000/svg">
<g id="facebook black.1">
<path id="Facebook" d="M13.7437 20.8212H5.01843C4.46295 20.8212 4.01294 20.3976 4.01294 19.8753V4.62899C4.01294 4.10651 4.46302 3.68311 5.01843 3.68311H21.2254C21.7807 3.68311 22.2308 4.10651 22.2308 4.62899V19.8753C22.2308 20.3977 21.7806 20.8212 21.2254 20.8212H16.583V14.1844H18.951L19.3056 11.5979H16.583V9.9466C16.583 9.19776 16.8041 8.68744 17.9456 8.68744L19.4015 8.68684V6.37347C19.1497 6.34194 18.2854 6.27152 17.2799 6.27152C15.1808 6.27152 13.7437 7.47689 13.7437 9.69045V11.5979H11.3696V14.1844H13.7437V20.8212Z" fill="white"/>
</g>
</svg>
