<svg width="25" height="24" viewBox="0 0 25 24" fill="none" xmlns="http://www.w3.org/2000/svg">
<g id="instagram black.1">
<path id="Instagram" fill-rule="evenodd" clip-rule="evenodd" d="M12.4461 3.68311C9.97226 3.68311 9.66206 3.69297 8.69049 3.73467C7.72095 3.77627 7.05879 3.92114 6.4794 4.13299C5.8804 4.35194 5.37242 4.64495 4.86599 5.12133C4.3596 5.59774 4.04813 6.07561 3.81538 6.63911C3.59019 7.18416 3.43619 7.80708 3.39197 8.71915C3.34764 9.63313 3.33716 9.92495 3.33716 12.2522C3.33716 14.5794 3.34764 14.8712 3.39197 15.7852C3.43619 16.6973 3.59019 17.3202 3.81538 17.8652C4.04813 18.4287 4.3596 18.9066 4.86599 19.383C5.37242 19.8594 5.8804 20.1524 6.4794 20.3714C7.05879 20.5832 7.72095 20.7281 8.69049 20.7697C9.66206 20.8114 9.97226 20.8212 12.4461 20.8212C14.9199 20.8212 15.2301 20.8114 16.2017 20.7697C17.1712 20.7281 17.8334 20.5832 18.4128 20.3714C19.0118 20.1524 19.5198 19.8594 20.0262 19.383C20.5326 18.9066 20.8441 18.4287 21.0768 17.8652C21.302 17.3202 21.456 16.6973 21.5002 15.7852C21.5445 14.8712 21.555 14.5794 21.555 12.2522C21.555 9.92495 21.5445 9.63313 21.5002 8.71915C21.456 7.80708 21.302 7.18416 21.0768 6.63911C20.8441 6.07561 20.5326 5.59774 20.0262 5.12133C19.5198 4.64495 19.0118 4.35194 18.4128 4.13299C17.8334 3.92114 17.1712 3.77627 16.2017 3.73467C15.2301 3.69297 14.9199 3.68311 12.4461 3.68311ZM12.446 5.22705C14.8782 5.22705 15.1663 5.23579 16.1268 5.27702C17.0149 5.31512 17.4972 5.45471 17.8182 5.57206C18.2434 5.72751 18.5468 5.9132 18.8655 6.21308C19.1843 6.51292 19.3817 6.79837 19.5469 7.19835C19.6717 7.5003 19.8201 7.95403 19.8606 8.7895C19.9044 9.69308 19.9137 9.96411 19.9137 12.2522C19.9137 14.5402 19.9044 14.8112 19.8606 15.7148C19.8201 16.5503 19.6717 17.004 19.5469 17.3059C19.3817 17.7059 19.1843 17.9914 18.8655 18.2912C18.5468 18.5911 18.2434 18.7768 17.8182 18.9322C17.4972 19.0496 17.0149 19.1892 16.1268 19.2273C15.1664 19.2685 14.8784 19.2772 12.446 19.2772C10.0136 19.2772 9.7256 19.2685 8.76521 19.2273C7.8771 19.1892 7.39478 19.0496 7.07381 18.9322C6.64863 18.7768 6.34519 18.5911 6.02646 18.2912C5.70772 17.9914 5.5103 17.7059 5.34506 17.3059C5.22032 17.004 5.07192 16.5503 5.03143 15.7148C4.9876 14.8112 4.97831 14.5402 4.97831 12.2522C4.97831 9.96411 4.9876 9.69308 5.03143 8.7895C5.07192 7.95403 5.22032 7.5003 5.34506 7.19835C5.5103 6.79837 5.70769 6.51292 6.02646 6.21308C6.34519 5.9132 6.64863 5.72751 7.07381 5.57206C7.39478 5.45471 7.8771 5.31512 8.76521 5.27702C9.72571 5.23579 10.0138 5.22705 12.446 5.22705ZM7.76851 12.2521C7.76851 9.82188 9.86271 7.85181 12.4461 7.85181C15.0294 7.85181 17.1236 9.82188 17.1236 12.2521C17.1236 14.6824 15.0294 16.6525 12.4461 16.6525C9.86271 16.6525 7.76851 14.6824 7.76851 12.2521ZM12.446 15.1085C10.7691 15.1085 9.40971 13.8296 9.40971 12.2521C9.40971 10.6746 10.7691 9.39575 12.446 9.39575C14.1229 9.39575 15.4823 10.6746 15.4823 12.2521C15.4823 13.8296 14.1229 15.1085 12.446 15.1085ZM17.3084 8.70624C17.9121 8.70624 18.4015 8.24588 18.4015 7.67796C18.4015 7.11005 17.9121 6.64966 17.3084 6.64966C16.7048 6.64966 16.2154 7.11005 16.2154 7.67796C16.2154 8.24588 16.7048 8.70624 17.3084 8.70624Z" fill="white"/>
</g>
</svg>
