<svg width="25" height="24" viewBox="0 0 25 24" fill="none" xmlns="http://www.w3.org/2000/svg">
<g id="linkedin black.1">
<path id="LinkedIn" fill-rule="evenodd" clip-rule="evenodd" d="M5.31946 8.22595H5.29376C4.00839 8.22595 3.17505 7.43485 3.17505 6.43207C3.17505 5.40978 4.03303 4.63525 5.3441 4.63525C6.6541 4.63525 7.45959 5.40782 7.4853 6.42914C7.4853 7.43192 6.6541 8.22595 5.31946 8.22595ZM21.3929 19.8691H17.3665V14.5138C17.3665 13.1121 16.7366 12.1551 15.3517 12.1551C14.2923 12.1551 13.7032 12.8009 13.429 13.4232C13.3384 13.6199 13.3401 13.8847 13.3418 14.1575V14.1576C13.342 14.1946 13.3422 14.2318 13.3422 14.269V19.8691H9.3533C9.3533 19.8691 9.40471 10.3827 9.3533 9.5204H13.3422V11.1446C13.5779 10.4344 14.8525 9.4209 16.8866 9.4209C19.4102 9.4209 21.3929 10.9095 21.3929 14.1149V19.8691ZM7.18559 9.52039H3.63477V19.8691H7.18559V9.52039Z" fill="white"/>
</g>
</svg>
