<svg width="26" height="24" viewBox="0 0 26 24" fill="none" xmlns="http://www.w3.org/2000/svg">
<g id="round-local-printshop-24px">
<path id="Shape" fill-rule="evenodd" clip-rule="evenodd" d="M7.8043 3.74756H17.9253C18.482 3.74756 18.9374 4.17601 18.9374 4.69968V6.60391C18.9374 7.12758 18.482 7.55603 17.9253 7.55603H7.8043C7.24764 7.55603 6.79219 7.12758 6.79219 6.60391V4.69968C6.79219 4.17601 7.24764 3.74756 7.8043 3.74756ZM5.78009 8.50815H19.9495C21.6296 8.50815 22.9859 9.78399 22.9859 11.3645V15.173C22.9859 16.2203 22.075 17.0772 20.9616 17.0772H18.9374V18.9814C18.9374 20.0288 18.0265 20.8857 16.9132 20.8857H8.8164C7.70308 20.8857 6.79219 20.0288 6.79219 18.9814V17.0772H4.76798C3.65467 17.0772 2.74377 16.2203 2.74377 15.173V11.3645C2.74377 9.78399 4.09999 8.50815 5.78009 8.50815ZM9.8285 18.9814H15.9011C16.4578 18.9814 16.9132 18.553 16.9132 18.0293V14.2209H8.8164V18.0293C8.8164 18.553 9.27185 18.9814 9.8285 18.9814ZM19.95 12.3166C19.3931 12.3166 18.9374 11.8882 18.9374 11.3645C18.9374 10.8408 19.3931 10.4124 19.95 10.4124C20.5069 10.4124 20.9626 10.8408 20.9626 11.3645C20.9626 11.8882 20.5069 12.3166 19.95 12.3166Z" fill="white"/>
</g>
</svg>
