<svg width="25" height="24" viewBox="0 0 25 24" fill="none" xmlns="http://www.w3.org/2000/svg">
<g id="twitter black.1">
<path id="Twitter" d="M21.8118 7.27811C21.1424 7.56488 20.4216 7.75881 19.6656 7.84546C20.4377 7.39983 21.0301 6.69322 21.3092 5.85148C20.5863 6.2641 19.7875 6.56428 18.9342 6.7252C18.2541 6.02478 17.2821 5.5874 16.2064 5.5874C14.1437 5.5874 12.4702 7.20177 12.4702 9.19266C12.4702 9.4753 12.5023 9.74969 12.5665 10.0138C9.46012 9.86316 6.70664 8.42931 4.86208 6.24553C4.54021 6.77987 4.35629 7.39983 4.35629 8.06002C4.35629 9.31026 5.01606 10.414 6.01907 11.0608C5.40743 11.0433 4.83 10.8792 4.32528 10.611V10.6554C4.32528 12.4028 5.6138 13.8604 7.3247 14.1905C7.0114 14.2751 6.68098 14.3174 6.33987 14.3174C6.09927 14.3174 5.86402 14.2957 5.63626 14.2534C6.1121 15.6852 7.49152 16.7281 9.12756 16.756C7.84867 17.7236 6.23614 18.3002 4.48568 18.3002C4.18413 18.3002 3.88579 18.2837 3.59387 18.2507C5.2481 19.2719 7.2135 19.8692 9.32325 19.8692C16.1989 19.8692 19.9576 14.3762 19.9576 9.61147C19.9576 9.45467 19.9544 9.29788 19.9479 9.14418C20.6783 8.63562 21.3124 8.00122 21.8118 7.27811Z" fill="white"/>
</g>
</svg>
